<?xml version="1.0" encoding="utf-8"?>
<!-- Generator: Adobe Illustrator 23.0.3, SVG Export Plug-In . SVG Version: 6.00 Build 0)  -->
<svg version="1.1" id="Layer_1" xmlns="http://www.w3.org/2000/svg" xmlns:xlink="http://www.w3.org/1999/xlink" x="0px" y="0px"
	 viewBox="0 0 540 322" style="enable-background:new 0 0 540 322;" xml:space="preserve">
<style type="text/css">
	.st0{clip-path:url(#SVGID_2_);fill:#FFB4B4;}
	.st1{clip-path:url(#SVGID_2_);}
	.st2{font-family:'Helvetica';}
	.st3{font-size:5.94px;}
	.st4{clip-path:url(#SVGID_4_);}
	.st5{fill:#603913;}
	.st6{clip-path:url(#SVGID_6_);}
	.st7{clip-path:url(#SVGID_8_);}
	.st8{clip-path:url(#SVGID_10_);fill:#DCDCFF;}
	.st9{clip-path:url(#SVGID_12_);}
	.st10{clip-path:url(#SVGID_12_);fill:none;stroke:#000000;stroke-width:0.45;stroke-miterlimit:10;}
	.st11{clip-path:url(#SVGID_14_);}
	.st12{fill:#0C0C78;}
	.st13{clip-path:url(#SVGID_16_);fill:none;stroke:#0C0C78;stroke-width:0.45;stroke-miterlimit:10;}
	.st14{clip-path:url(#SVGID_16_);fill:none;stroke:#8585BB;stroke-width:0.45;stroke-miterlimit:10;}
	.st15{clip-path:url(#SVGID_18_);}
	.st16{clip-path:url(#SVGID_20_);fill:none;stroke:#000000;stroke-width:0.45;stroke-miterlimit:10;}
	.st17{clip-path:url(#SVGID_20_);}
	.st18{clip-path:url(#SVGID_22_);}
	.st19{clip-path:url(#SVGID_24_);fill:none;stroke:#000000;stroke-width:0.45;stroke-miterlimit:10;}
	.st20{clip-path:url(#SVGID_24_);}
	.st21{clip-path:url(#SVGID_26_);}
	.st22{clip-path:url(#SVGID_28_);fill:none;stroke:#000000;stroke-width:0.45;stroke-miterlimit:10;}
	.st23{clip-path:url(#SVGID_28_);}
	.st24{clip-path:url(#SVGID_30_);}
	.st25{clip-path:url(#SVGID_32_);fill:none;stroke:#000000;stroke-width:0.45;stroke-miterlimit:10;}
	.st26{clip-path:url(#SVGID_32_);}
	.st27{clip-path:url(#SVGID_34_);}
	.st28{clip-path:url(#SVGID_36_);fill:none;stroke:#000000;stroke-width:0.45;stroke-miterlimit:10;}
	.st29{clip-path:url(#SVGID_36_);}
	.st30{clip-path:url(#SVGID_38_);}
	.st31{clip-path:url(#SVGID_40_);fill:none;stroke:#000000;stroke-width:0.45;stroke-miterlimit:10;}
	.st32{clip-path:url(#SVGID_40_);}
	.st33{clip-path:url(#SVGID_42_);}
	.st34{clip-path:url(#SVGID_44_);fill:none;stroke:#000000;stroke-width:0.45;stroke-miterlimit:10;}
	.st35{clip-path:url(#SVGID_44_);}
	.st36{clip-path:url(#SVGID_46_);}
	.st37{clip-path:url(#SVGID_48_);fill:none;stroke:#000000;stroke-width:0.45;stroke-miterlimit:10;}
	.st38{clip-path:url(#SVGID_48_);}
	.st39{clip-path:url(#SVGID_50_);}
	.st40{clip-path:url(#SVGID_52_);fill:none;stroke:#000000;stroke-width:0.45;stroke-miterlimit:10;}
	.st41{clip-path:url(#SVGID_52_);}
	.st42{clip-path:url(#SVGID_54_);}
	.st43{clip-path:url(#SVGID_56_);fill:#603913;}
	.st44{clip-path:url(#SVGID_60_);fill:none;stroke:#603913;stroke-width:0.45;stroke-miterlimit:10;}
	.st45{clip-path:url(#SVGID_60_);fill:#603913;}
	.st46{clip-path:url(#SVGID_62_);fill:none;stroke:#603913;stroke-width:0.45;stroke-miterlimit:10;}
	.st47{clip-path:url(#SVGID_62_);fill:#603913;}
	.st48{clip-path:url(#SVGID_64_);fill:none;stroke:#603913;stroke-width:0.45;stroke-miterlimit:10;}
	.st49{clip-path:url(#SVGID_64_);fill:#603913;}
	.st50{clip-path:url(#SVGID_66_);fill:#00BAD3;}
	.st51{clip-path:url(#SVGID_66_);fill:#0000D2;}
	.st52{clip-path:url(#SVGID_66_);}
	.st53{clip-path:url(#SVGID_66_);fill:#009A00;}
	.st54{clip-path:url(#SVGID_66_);fill:#E30000;}
	.st55{clip-path:url(#SVGID_66_);fill:#E3D300;}
	.st56{clip-path:url(#SVGID_68_);fill:none;stroke:#151515;stroke-width:0.45;stroke-miterlimit:10;}
	.st57{clip-path:url(#SVGID_68_);fill:#151515;}
	.st58{clip-path:url(#SVGID_70_);}
	.st59{fill:#151515;}
	.st60{clip-path:url(#SVGID_72_);}
	.st61{clip-path:url(#SVGID_74_);}
	.st62{clip-path:url(#SVGID_76_);}
	.st63{clip-path:url(#SVGID_78_);}
	.st64{clip-path:url(#SVGID_80_);}
	.st65{clip-path:url(#SVGID_82_);}

</style>

<g id="is_this_where_i_am">
	<defs>
		<rect id="SVGID_9_" x="60.75" y="0.25" width="478.8" height="321.75"/>
	</defs>
	<clipPath id="SVGID_10_">
		<use xlink:href="#SVGID_9_"  style="overflow:visible;"/>
	</clipPath>
	<rect x="65.7" y="0.25" class="st8" width="0.45" height="321.75"/>
	<rect x="71.1" y="0.25" class="st8" width="0.45" height="321.75"/>
	<rect x="76.5" y="0.25" class="st8" width="0.45" height="321.75"/>
	<rect x="81.9" y="0.25" class="st8" width="0.45" height="321.75"/>
	<rect x="87.3" y="0.25" class="st8" width="0.45" height="321.75"/>
	<rect x="92.7" y="0.25" class="st8" width="0.45" height="321.75"/>
	<rect x="98.1" y="0.25" class="st8" width="0.45" height="321.75"/>
	<rect x="103.5" y="0.25" class="st8" width="0.45" height="321.75"/>
	<rect x="108.9" y="0.25" class="st8" width="0.45" height="321.75"/>
	<rect x="114.3" y="0.25" class="st8" width="0.45" height="321.75"/>
	<rect x="119.7" y="0.25" class="st8" width="0.45" height="321.75"/>
	<rect x="125.1" y="0.25" class="st8" width="0.45" height="321.75"/>
	<rect x="130.5" y="0.25" class="st8" width="0.45" height="321.75"/>
	<rect x="135.9" y="0.25" class="st8" width="0.45" height="321.75"/>
	<rect x="141.3" y="0.25" class="st8" width="0.45" height="321.75"/>
	<rect x="146.7" y="0.25" class="st8" width="0.45" height="321.75"/>
	<rect x="152.1" y="0.25" class="st8" width="0.45" height="321.75"/>
	<rect x="157.5" y="0.25" class="st8" width="0.45" height="321.75"/>
	<rect x="162.9" y="0.25" class="st8" width="0.45" height="321.75"/>
	<rect x="168.3" y="0.25" class="st8" width="0.45" height="321.75"/>
	<rect x="173.7" y="0.25" class="st8" width="0.45" height="321.75"/>
	<rect x="179.1" y="0.25" class="st8" width="0.45" height="321.75"/>
	<rect x="184.5" y="0.25" class="st8" width="0.45" height="321.75"/>
	<rect x="189.9" y="0.25" class="st8" width="0.45" height="321.75"/>
	<rect x="195.3" y="0.25" class="st8" width="0.45" height="321.75"/>
	<rect x="200.7" y="0.25" class="st8" width="0.45" height="321.75"/>
	<rect x="206.1" y="0.25" class="st8" width="0.45" height="321.75"/>
	<rect x="211.5" y="0.25" class="st8" width="0.45" height="321.75"/>
	<rect x="216.9" y="0.25" class="st8" width="0.45" height="321.75"/>
	<rect x="222.3" y="0.25" class="st8" width="0.45" height="321.75"/>
	<rect x="227.7" y="0.25" class="st8" width="0.45" height="321.75"/>
	<rect x="233.1" y="0.25" class="st8" width="0.45" height="321.75"/>
	<rect x="238.5" y="0.25" class="st8" width="0.45" height="321.75"/>
	<rect x="243.9" y="0.25" class="st8" width="0.45" height="321.75"/>
	<rect x="249.3" y="0.25" class="st8" width="0.45" height="321.75"/>
	<rect x="254.7" y="0.25" class="st8" width="0.45" height="321.75"/>
	<rect x="260.1" y="0.25" class="st8" width="0.45" height="321.75"/>
	<rect x="265.5" y="0.25" class="st8" width="0.45" height="321.75"/>
	<rect x="270.9" y="0.25" class="st8" width="0.45" height="321.75"/>
	<rect x="276.3" y="0.25" class="st8" width="0.45" height="321.75"/>
	<rect x="281.7" y="0.25" class="st8" width="0.45" height="321.75"/>
	<rect x="287.1" y="0.25" class="st8" width="0.45" height="321.75"/>
	<rect x="292.5" y="0.25" class="st8" width="0.45" height="321.75"/>
	<rect x="297.9" y="0.25" class="st8" width="0.45" height="321.75"/>
	<rect x="303.3" y="0.25" class="st8" width="0.45" height="321.75"/>
	<rect x="308.7" y="0.25" class="st8" width="0.45" height="321.75"/>
	<rect x="314.1" y="0.25" class="st8" width="0.45" height="321.75"/>
	<rect x="319.5" y="0.25" class="st8" width="0.45" height="321.75"/>
	<rect x="324.9" y="0.25" class="st8" width="0.45" height="321.75"/>
	<rect x="330.3" y="0.25" class="st8" width="0.45" height="321.75"/>
	<rect x="335.7" y="0.25" class="st8" width="0.45" height="321.75"/>
	<rect x="341.1" y="0.25" class="st8" width="0.45" height="321.75"/>
	<rect x="346.5" y="0.25" class="st8" width="0.45" height="321.75"/>
	<rect x="351.9" y="0.25" class="st8" width="0.45" height="321.75"/>
	<rect x="357.3" y="0.25" class="st8" width="0.45" height="321.75"/>
	<rect x="362.7" y="0.25" class="st8" width="0.45" height="321.75"/>
	<rect x="368.1" y="0.25" class="st8" width="0.45" height="321.75"/>
	<rect x="373.5" y="0.25" class="st8" width="0.45" height="321.75"/>
	<rect x="378.9" y="0.25" class="st8" width="0.45" height="321.75"/>
	<rect x="384.3" y="0.25" class="st8" width="0.45" height="321.75"/>
	<rect x="389.7" y="0.25" class="st8" width="0.45" height="321.75"/>
	<rect x="395.1" y="0.25" class="st8" width="0.45" height="321.75"/>
	<rect x="400.5" y="0.25" class="st8" width="0.45" height="321.75"/>
	<rect x="405.9" y="0.25" class="st8" width="0.45" height="321.75"/>
	<rect x="411.3" y="0.25" class="st8" width="0.45" height="321.75"/>
	<rect x="416.7" y="0.25" class="st8" width="0.45" height="321.75"/>
	<rect x="422.1" y="0.25" class="st8" width="0.45" height="321.75"/>
	<rect x="427.5" y="0.25" class="st8" width="0.45" height="321.75"/>
	<rect x="432.9" y="0.25" class="st8" width="0.45" height="321.75"/>
	<rect x="438.3" y="0.25" class="st8" width="0.45" height="321.75"/>
	<rect x="443.7" y="0.25" class="st8" width="0.45" height="321.75"/>
	<rect x="449.1" y="0.25" class="st8" width="0.45" height="321.75"/>
	<rect x="454.5" y="0.25" class="st8" width="0.45" height="321.75"/>
	<rect x="459.9" y="0.25" class="st8" width="0.45" height="321.75"/>
	<rect x="465.3" y="0.25" class="st8" width="0.45" height="321.75"/>
	<rect x="470.7" y="0.25" class="st8" width="0.45" height="321.75"/>
	<rect x="476.1" y="0.25" class="st8" width="0.45" height="321.75"/>
	<rect x="481.5" y="0.25" class="st8" width="0.45" height="321.75"/>
	<rect x="486.9" y="0.25" class="st8" width="0.45" height="321.75"/>
	<rect x="492.3" y="0.25" class="st8" width="0.45" height="321.75"/>
	<rect x="497.7" y="0.25" class="st8" width="0.45" height="321.75"/>
	<rect x="503.1" y="0.25" class="st8" width="0.45" height="321.75"/>
	<rect x="508.5" y="0.25" class="st8" width="0.45" height="321.75"/>
	<rect x="513.9" y="0.25" class="st8" width="0.45" height="321.75"/>
	<rect x="519.3" y="0.25" class="st8" width="0.45" height="321.75"/>
	<rect x="524.7" y="0.25" class="st8" width="0.45" height="321.75"/>
	<rect x="530.1" y="0.25" class="st8" width="0.45" height="321.75"/>
	<rect x="535.5" y="0.25" class="st8" width="0.45" height="321.75"/>
</g>
</svg>
