<?xml version="1.0" encoding="utf-8"?>
<!-- Generator: Adobe Illustrator 23.0.3, SVG Export Plug-In . SVG Version: 6.00 Build 0)  -->
<svg version="1.1" id="Layer_1" xmlns="http://www.w3.org/2000/svg" xmlns:xlink="http://www.w3.org/1999/xlink" x="0px" y="0px"
	 viewBox="0 0 540 322" style="enable-background:new 0 0 540 322;" xml:space="preserve">
<style type="text/css">
	.st0{clip-path:url(#SVGID_2_);fill:#FFB4B4;}
	.st1{clip-path:url(#SVGID_2_);}
	.st2{font-family:'Helvetica';}
	.st3{font-size:5.94px;}
	.st4{clip-path:url(#SVGID_4_);}
	.st5{fill:#603913;}
	.st6{clip-path:url(#SVGID_6_);}
	.st7{clip-path:url(#SVGID_8_);}
	.st8{clip-path:url(#SVGID_10_);fill:#DCDCFF;}
	.st9{clip-path:url(#SVGID_12_);}
	.st10{clip-path:url(#SVGID_12_);fill:none;stroke:#000000;stroke-width:0.45;stroke-miterlimit:10;}
	.st11{clip-path:url(#SVGID_14_);}
	.st12{fill:#0C0C78;}
	.st13{clip-path:url(#SVGID_16_);fill:none;stroke:#0C0C78;stroke-width:0.45;stroke-miterlimit:10;}
	.st14{clip-path:url(#SVGID_16_);fill:none;stroke:#8585BB;stroke-width:0.45;stroke-miterlimit:10;}
	.st15{clip-path:url(#SVGID_18_);}
	.st16{clip-path:url(#SVGID_20_);fill:none;stroke:#000000;stroke-width:0.45;stroke-miterlimit:10;}
	.st17{clip-path:url(#SVGID_20_);}
	.st18{clip-path:url(#SVGID_22_);}
	.st19{clip-path:url(#SVGID_24_);fill:none;stroke:#000000;stroke-width:0.45;stroke-miterlimit:10;}
	.st20{clip-path:url(#SVGID_24_);}
	.st21{clip-path:url(#SVGID_26_);}
	.st22{clip-path:url(#SVGID_28_);fill:none;stroke:#000000;stroke-width:0.45;stroke-miterlimit:10;}
	.st23{clip-path:url(#SVGID_28_);}
	.st24{clip-path:url(#SVGID_30_);}
	.st25{clip-path:url(#SVGID_32_);fill:none;stroke:#000000;stroke-width:0.45;stroke-miterlimit:10;}
	.st26{clip-path:url(#SVGID_32_);}
	.st27{clip-path:url(#SVGID_34_);}
	.st28{clip-path:url(#SVGID_36_);fill:none;stroke:#000000;stroke-width:0.45;stroke-miterlimit:10;}
	.st29{clip-path:url(#SVGID_36_);}
	.st30{clip-path:url(#SVGID_38_);}
	.st31{clip-path:url(#SVGID_40_);fill:none;stroke:#000000;stroke-width:0.45;stroke-miterlimit:10;}
	.st32{clip-path:url(#SVGID_40_);}
	.st33{clip-path:url(#SVGID_42_);}
	.st34{clip-path:url(#SVGID_44_);fill:none;stroke:#000000;stroke-width:0.45;stroke-miterlimit:10;}
	.st35{clip-path:url(#SVGID_44_);}
	.st36{clip-path:url(#SVGID_46_);}
	.st37{clip-path:url(#SVGID_48_);fill:none;stroke:#000000;stroke-width:0.45;stroke-miterlimit:10;}
	.st38{clip-path:url(#SVGID_48_);}
	.st39{clip-path:url(#SVGID_50_);}
	.st40{clip-path:url(#SVGID_52_);fill:none;stroke:#000000;stroke-width:0.45;stroke-miterlimit:10;}
	.st41{clip-path:url(#SVGID_52_);}
	.st42{clip-path:url(#SVGID_54_);}
	.st43{clip-path:url(#SVGID_56_);fill:#603913;}
	.st44{clip-path:url(#SVGID_60_);fill:none;stroke:#603913;stroke-width:0.45;stroke-miterlimit:10;}
	.st45{clip-path:url(#SVGID_60_);fill:#603913;}
	.st46{clip-path:url(#SVGID_62_);fill:none;stroke:#603913;stroke-width:0.45;stroke-miterlimit:10;}
	.st47{clip-path:url(#SVGID_62_);fill:#603913;}
	.st48{clip-path:url(#SVGID_64_);fill:none;stroke:#603913;stroke-width:0.45;stroke-miterlimit:10;}
	.st49{clip-path:url(#SVGID_64_);fill:#603913;}
	.st50{clip-path:url(#SVGID_66_);fill:#00BAD3;}
	.st51{clip-path:url(#SVGID_66_);fill:#0000D2;}
	.st52{clip-path:url(#SVGID_66_);}
	.st53{clip-path:url(#SVGID_66_);fill:#009A00;}
	.st54{clip-path:url(#SVGID_66_);fill:#E30000;}
	.st55{clip-path:url(#SVGID_66_);fill:#E3D300;}
	.st56{clip-path:url(#SVGID_68_);fill:none;stroke:#151515;stroke-width:0.45;stroke-miterlimit:10;}
	.st57{clip-path:url(#SVGID_68_);fill:#151515;}
	.st58{clip-path:url(#SVGID_70_);}
	.st59{fill:#151515;}
	.st60{clip-path:url(#SVGID_72_);}
	.st61{clip-path:url(#SVGID_74_);}
	.st62{clip-path:url(#SVGID_76_);}
	.st63{clip-path:url(#SVGID_78_);}
	.st64{clip-path:url(#SVGID_80_);}
	.st65{clip-path:url(#SVGID_82_);}
</style>

<g>
	<defs>
		<rect id="SVGID_65_" y="0.25" width="540" height="321.75"/>
	</defs>
	<clipPath id="SVGID_66_">
		<use xlink:href="#SVGID_65_"  style="overflow:visible;"/>
	</clipPath>
	<rect x="337.73" y="135.47" class="st50" width="0.45" height="0.45"/>
	<rect x="338.18" y="135.47" class="st50" width="0.45" height="0.45"/>
	<rect x="338.62" y="135.47" class="st50" width="0.45" height="0.45"/>
	<rect x="339.08" y="135.47" class="st50" width="0.45" height="0.45"/>
	<rect x="339.52" y="135.47" class="st50" width="0.45" height="0.45"/>
	<rect x="339.98" y="135.47" class="st50" width="0.45" height="0.45"/>
	<rect x="340.43" y="135.47" class="st50" width="0.45" height="0.45"/>
	<rect x="340.88" y="135.47" class="st50" width="0.45" height="0.45"/>
	<rect x="341.33" y="135.47" class="st50" width="0.45" height="0.45"/>
	<rect x="341.77" y="135.47" class="st51" width="0.45" height="0.45"/>
	<rect x="342.23" y="135.47" class="st50" width="0.45" height="0.45"/>
	<rect x="342.68" y="135.47" class="st50" width="0.45" height="0.45"/>
	<rect x="343.12" y="135.47" class="st50" width="0.45" height="0.45"/>
	<rect x="343.58" y="135.47" class="st50" width="0.45" height="0.45"/>
	<rect x="344.02" y="135.47" class="st50" width="0.45" height="0.45"/>
	<rect x="344.48" y="135.47" class="st52" width="0.45" height="0.45"/>
	<rect x="344.93" y="135.47" class="st52" width="0.45" height="0.45"/>
	<rect x="345.38" y="135.47" class="st52" width="0.45" height="0.45"/>
	<rect x="345.83" y="135.47" class="st52" width="0.45" height="0.45"/>
	<rect x="346.27" y="135.47" class="st52" width="0.45" height="0.45"/>
	<rect x="346.73" y="135.47" class="st52" width="0.45" height="0.45"/>
	<rect x="347.18" y="135.47" class="st53" width="0.45" height="0.45"/>
	<rect x="347.62" y="135.47" class="st53" width="0.45" height="0.45"/>
	<rect x="348.08" y="135.47" class="st52" width="0.45" height="0.45"/>
	<rect x="348.52" y="135.47" class="st52" width="0.45" height="0.45"/>
	<rect x="348.98" y="135.47" class="st52" width="0.45" height="0.45"/>
	<rect x="349.43" y="135.47" class="st52" width="0.45" height="0.45"/>
	<rect x="349.88" y="135.47" class="st52" width="0.45" height="0.45"/>
	<rect x="350.33" y="135.47" class="st52" width="0.45" height="0.45"/>
	<rect x="350.77" y="135.47" class="st52" width="0.45" height="0.45"/>
	<rect x="351.23" y="135.47" class="st52" width="0.45" height="0.45"/>
	<rect x="351.68" y="135.47" class="st52" width="0.45" height="0.45"/>
	<rect x="352.12" y="135.47" class="st52" width="0.45" height="0.45"/>
	<rect x="352.58" y="135.47" class="st52" width="0.45" height="0.45"/>
	<rect x="353.02" y="135.47" class="st52" width="0.45" height="0.45"/>
	<rect x="353.48" y="135.47" class="st52" width="0.45" height="0.45"/>
	<rect x="353.93" y="135.47" class="st52" width="0.45" height="0.45"/>
	<rect x="354.38" y="135.47" class="st52" width="0.45" height="0.45"/>
	<rect x="354.83" y="135.47" class="st52" width="0.45" height="0.45"/>
	<rect x="355.27" y="135.47" class="st52" width="0.45" height="0.45"/>
	<rect x="355.73" y="135.47" class="st52" width="0.45" height="0.45"/>
	<rect x="356.18" y="135.47" class="st52" width="0.45" height="0.45"/>
	<rect x="356.62" y="135.47" class="st52" width="0.45" height="0.45"/>
	<rect x="357.08" y="135.47" class="st52" width="0.45" height="0.45"/>
	<rect x="357.52" y="135.47" class="st53" width="0.45" height="0.45"/>
	<rect x="357.98" y="135.47" class="st52" width="0.45" height="0.45"/>
	<rect x="358.43" y="135.47" class="st52" width="0.45" height="0.45"/>
	<rect x="358.88" y="135.47" class="st52" width="0.45" height="0.45"/>
	<rect x="359.33" y="135.47" class="st52" width="0.45" height="0.45"/>
	<rect x="359.77" y="135.47" class="st52" width="0.45" height="0.45"/>
	<rect x="360.23" y="135.47" class="st52" width="0.45" height="0.45"/>
	<rect x="360.68" y="135.47" class="st53" width="0.45" height="0.45"/>
	<rect x="361.12" y="135.47" class="st52" width="0.45" height="0.45"/>
	<rect x="361.58" y="135.47" class="st52" width="0.45" height="0.45"/>
	<rect x="362.02" y="135.47" class="st52" width="0.45" height="0.45"/>
	<rect x="362.48" y="135.47" class="st53" width="0.45" height="0.45"/>
	<rect x="362.93" y="135.47" class="st53" width="0.45" height="0.45"/>
	<rect x="363.38" y="135.47" class="st53" width="0.45" height="0.45"/>
	<rect x="363.83" y="135.47" class="st53" width="0.45" height="0.45"/>
	<rect x="364.27" y="135.47" class="st53" width="0.45" height="0.45"/>
	<rect x="364.73" y="135.47" class="st52" width="0.45" height="0.45"/>
	<rect x="365.18" y="135.47" class="st52" width="0.45" height="0.45"/>
	<rect x="365.62" y="135.47" class="st52" width="0.45" height="0.45"/>
	<rect x="366.08" y="135.47" class="st52" width="0.45" height="0.45"/>
	<rect x="366.52" y="135.47" class="st52" width="0.45" height="0.45"/>
	<rect x="366.98" y="135.47" class="st52" width="0.45" height="0.45"/>
	<rect x="367.43" y="135.47" class="st52" width="0.45" height="0.45"/>
	<rect x="367.88" y="135.47" class="st52" width="0.45" height="0.45"/>
	<rect x="368.33" y="135.47" class="st52" width="0.45" height="0.45"/>
	<rect x="368.77" y="135.47" class="st52" width="0.45" height="0.45"/>
	<rect x="369.23" y="135.47" class="st52" width="0.45" height="0.45"/>
	<rect x="369.68" y="135.47" class="st52" width="0.45" height="0.45"/>
	<rect x="370.12" y="135.47" class="st52" width="0.45" height="0.45"/>
	<rect x="370.58" y="135.47" class="st52" width="0.45" height="0.45"/>
	<rect x="371.02" y="135.47" class="st52" width="0.45" height="0.45"/>
	<rect x="371.48" y="135.47" class="st52" width="0.45" height="0.45"/>
	<rect x="371.93" y="135.47" class="st52" width="0.45" height="0.45"/>
	<rect x="372.38" y="135.47" class="st52" width="0.45" height="0.45"/>
	<rect x="372.83" y="135.47" class="st52" width="0.45" height="0.45"/>
	<rect x="373.27" y="135.47" class="st52" width="0.45" height="0.45"/>
	<rect x="373.73" y="135.47" class="st52" width="0.45" height="0.45"/>
	<rect x="374.18" y="135.47" class="st52" width="0.45" height="0.45"/>
	<rect x="374.62" y="135.47" class="st52" width="0.45" height="0.45"/>
	<rect x="375.08" y="135.47" class="st52" width="0.45" height="0.45"/>
	<rect x="375.52" y="135.47" class="st52" width="0.45" height="0.45"/>
	<rect x="375.98" y="135.47" class="st52" width="0.45" height="0.45"/>
	<rect x="376.43" y="135.47" class="st52" width="0.45" height="0.45"/>
	<rect x="376.88" y="135.47" class="st52" width="0.45" height="0.45"/>
	<rect x="377.33" y="135.47" class="st52" width="0.45" height="0.45"/>
	<rect x="377.77" y="135.47" class="st52" width="0.45" height="0.45"/>
	<rect x="378.23" y="135.47" class="st52" width="0.45" height="0.45"/>
	<rect x="378.68" y="135.47" class="st52" width="0.45" height="0.45"/>
	<rect x="379.12" y="135.47" class="st52" width="0.45" height="0.45"/>
	<rect x="379.58" y="135.47" class="st52" width="0.45" height="0.45"/>
	<rect x="380.02" y="135.47" class="st52" width="0.45" height="0.45"/>
	<rect x="380.48" y="135.47" class="st52" width="0.45" height="0.45"/>
	<rect x="380.93" y="135.47" class="st52" width="0.45" height="0.45"/>
	<rect x="381.38" y="135.47" class="st52" width="0.45" height="0.45"/>
	<rect x="381.83" y="135.47" class="st52" width="0.45" height="0.45"/>
	<rect x="382.27" y="135.47" class="st52" width="0.45" height="0.45"/>
	<rect x="382.73" y="135.47" class="st52" width="0.45" height="0.45"/>
	<rect x="383.18" y="135.47" class="st52" width="0.45" height="0.45"/>
	<rect x="383.62" y="135.47" class="st52" width="0.45" height="0.45"/>
	<rect x="384.08" y="135.47" class="st52" width="0.45" height="0.45"/>
	<rect x="384.52" y="135.47" class="st52" width="0.45" height="0.45"/>
	<rect x="384.98" y="135.47" class="st52" width="0.45" height="0.45"/>
	<rect x="385.43" y="135.47" class="st52" width="0.45" height="0.45"/>
	<rect x="385.88" y="135.47" class="st52" width="0.45" height="0.45"/>
	<rect x="386.33" y="135.47" class="st52" width="0.45" height="0.45"/>
	<rect x="386.77" y="135.47" class="st52" width="0.45" height="0.45"/>
	<rect x="387.23" y="135.47" class="st52" width="0.45" height="0.45"/>
	<rect x="387.68" y="135.47" class="st52" width="0.45" height="0.45"/>
	<rect x="388.12" y="135.47" class="st52" width="0.45" height="0.45"/>
	<rect x="388.58" y="135.47" class="st52" width="0.45" height="0.45"/>
	<rect x="389.02" y="135.47" class="st52" width="0.45" height="0.45"/>
	<rect x="389.48" y="135.47" class="st52" width="0.45" height="0.45"/>
	<rect x="389.93" y="135.47" class="st52" width="0.45" height="0.45"/>
	<rect x="390.38" y="135.47" class="st52" width="0.45" height="0.45"/>
	<rect x="390.83" y="135.47" class="st52" width="0.45" height="0.45"/>
	<rect x="391.27" y="135.47" class="st52" width="0.45" height="0.45"/>
	<rect x="391.73" y="135.47" class="st52" width="0.45" height="0.45"/>
	<rect x="392.18" y="135.47" class="st52" width="0.45" height="0.45"/>
	<rect x="392.62" y="135.47" class="st52" width="0.45" height="0.45"/>
	<rect x="393.08" y="135.47" class="st52" width="0.45" height="0.45"/>
	<rect x="393.52" y="135.47" class="st52" width="0.45" height="0.45"/>
	<rect x="393.98" y="135.47" class="st52" width="0.45" height="0.45"/>
	<rect x="394.43" y="135.47" class="st52" width="0.45" height="0.45"/>
	<rect x="394.88" y="135.47" class="st52" width="0.45" height="0.45"/>
	<rect x="395.33" y="135.47" class="st52" width="0.45" height="0.45"/>
	<rect x="395.77" y="135.47" class="st52" width="0.45" height="0.45"/>
	<rect x="396.23" y="135.47" class="st52" width="0.45" height="0.45"/>
	<rect x="396.68" y="135.47" class="st52" width="0.45" height="0.45"/>
	<rect x="397.12" y="135.47" class="st52" width="0.45" height="0.45"/>
	<rect x="397.58" y="135.47" class="st52" width="0.45" height="0.45"/>
	<rect x="398.02" y="135.47" class="st52" width="0.45" height="0.45"/>
	<rect x="398.48" y="135.47" class="st52" width="0.45" height="0.45"/>
	<rect x="398.93" y="135.47" class="st52" width="0.45" height="0.45"/>
	<rect x="399.38" y="135.47" class="st52" width="0.45" height="0.45"/>
	<rect x="399.83" y="135.47" class="st52" width="0.45" height="0.45"/>
	<rect x="400.27" y="135.47" class="st52" width="0.45" height="0.45"/>
	<rect x="400.73" y="135.47" class="st52" width="0.45" height="0.45"/>
	<rect x="401.18" y="135.47" class="st52" width="0.45" height="0.45"/>
	<rect x="401.62" y="135.47" class="st52" width="0.45" height="0.45"/>
	<rect x="402.08" y="135.47" class="st52" width="0.45" height="0.45"/>
	<rect x="402.52" y="135.47" class="st52" width="0.45" height="0.45"/>
	<rect x="402.98" y="135.47" class="st52" width="0.45" height="0.45"/>
	<rect x="403.43" y="135.47" class="st52" width="0.45" height="0.45"/>
	<rect x="403.88" y="135.47" class="st52" width="0.45" height="0.45"/>
	<rect x="404.33" y="135.47" class="st52" width="0.45" height="0.45"/>
	<rect x="404.77" y="135.47" class="st52" width="0.45" height="0.45"/>
	<rect x="405.23" y="135.47" class="st52" width="0.45" height="0.45"/>
	<rect x="405.68" y="135.47" class="st52" width="0.45" height="0.45"/>
	<rect x="406.12" y="135.47" class="st52" width="0.45" height="0.45"/>
	<rect x="406.58" y="135.47" class="st52" width="0.45" height="0.45"/>
	<rect x="407.02" y="135.47" class="st52" width="0.45" height="0.45"/>
	<rect x="407.48" y="135.47" class="st52" width="0.45" height="0.45"/>
	<rect x="407.93" y="135.47" class="st52" width="0.45" height="0.45"/>
	<rect x="408.38" y="135.47" class="st54" width="0.45" height="0.45"/>
	<rect x="408.83" y="135.47" class="st54" width="0.45" height="0.45"/>
	<rect x="409.27" y="135.47" class="st54" width="0.45" height="0.45"/>
	<rect x="409.73" y="135.47" class="st55" width="0.45" height="0.45"/>
	<rect x="410.18" y="135.47" class="st55" width="0.45" height="0.45"/>
	<rect x="410.62" y="135.47" class="st55" width="0.45" height="0.45"/>
	<rect x="411.08" y="135.47" class="st55" width="0.45" height="0.45"/>
</g>
</svg>
